<svg xmlns="http://www.w3.org/2000/svg" viewBox="0 0 64 64" fill="none">
  <rect x="6" y="6" width="52" height="52" rx="14" fill="#102116"/>
  <rect x="12" y="12" width="40" height="40" rx="12" fill="#2ecc71" fill-opacity=".85"/>
  <path d="M32 18c1.8 3.5 3.2 7.2 3.8 11.2 1.5-1.4 3.6-2.8 6.2-4-1 3.9-2.9 6.6-5.1 8.6 2.5.3 5.2 1.2 8 2.8-3.7 1.8-6.8 2.2-9.5 1.9.6 1.8.9 3.9.9 6.5-2.5-2-4-4.3-5-6.6-1 2.3-2.5 4.6-5 6.6 0-2.6.3-4.7.9-6.5-2.7.3-5.8-.1-9.5-1.9 2.8-1.6 5.5-2.5 8-2.8-2.2-2-4.1-4.7-5.1-8.6 2.6 1.2 4.7 2.6 6.2 4 .6-4 2-7.7 3.8-11.2z" fill="#0f1f13"/>
</svg>
